<svg xmlns="http://www.w3.org/2000/svg" xmlns:xlink="http://www.w3.org/1999/xlink" width="500" zoomAndPan="magnify" viewBox="0 0 375 374.999991" height="500" preserveAspectRatio="xMidYMid meet" version="1.0"><defs><g/><clipPath id="a6e632e5b4"><path d="M 112.773438 112.5 L 262 112.5 L 262 262.5 L 112.773438 262.5 Z M 112.773438 112.5 " clip-rule="nonzero"/></clipPath></defs><g clip-path="url(#a6e632e5b4)"><path fill="#d90707" d="M 253.820312 184.308594 C 253.820312 154.363281 253.757812 126.625 253.757812 126.273438 L 253.566406 126.273438 C 253.566406 122.074219 253.566406 119.636719 253.566406 119.636719 C 253.53125 119.539062 250.164062 119.445312 244.523438 119.414062 C 243.882812 115.308594 243.5625 112.902344 243.5625 112.902344 C 243.433594 112.679688 222.015625 115.628906 196.554688 119.21875 C 193.445312 119.21875 190.269531 119.21875 187.128906 119.21875 C 154.421875 119.21875 121.878906 119.285156 121.492188 119.285156 L 121.492188 119.796875 C 121.492188 120.085938 121.492188 123.421875 121.460938 128.871094 C 121.460938 129.222656 121.460938 129.609375 121.429688 130.027344 C 116.105469 130.796875 112.902344 131.277344 112.773438 131.277344 L 112.835938 131.789062 C 112.964844 132.65625 116.941406 161.160156 121.171875 191.300781 C 121.171875 203.902344 121.171875 216.535156 121.207031 227.371094 C 121.171875 241.382812 121.171875 251.097656 121.207031 251.484375 C 121.207031 251.484375 121.207031 251.484375 121.238281 251.484375 C 121.238281 255.652344 121.238281 258.054688 121.238281 258.054688 C 121.269531 258.152344 124.765625 258.214844 130.632812 258.25 C 130.984375 260.621094 131.175781 262 131.210938 262.128906 C 131.242188 262.320312 143.296875 260.683594 160.066406 258.34375 C 168.660156 258.34375 177.957031 258.375 187.289062 258.375 C 220.316406 258.375 253.371094 258.3125 253.371094 258.3125 C 253.5 258.25 253.597656 253.152344 253.660156 244.972656 C 258.886719 244.203125 261.964844 243.757812 261.964844 243.757812 C 262.222656 243.628906 258.183594 214.867188 253.820312 184.308594 Z M 252.761719 251.097656 C 233.332031 251.097656 220.410156 251.128906 211.046875 251.128906 C 227.882812 248.726562 243.367188 246.480469 252.761719 245.101562 C 252.761719 247.058594 252.761719 249.046875 252.761719 251.097656 Z M 187.128906 251.164062 C 176.964844 251.164062 166.671875 251.195312 130.183594 251.226562 C 124.699219 213.261719 123.546875 205.085938 121.910156 193.929688 C 121.910156 182.640625 121.878906 173.246094 121.847656 131.019531 C 135.632812 129.03125 145.636719 127.589844 153.269531 126.5 C 172.027344 126.464844 179.691406 126.464844 187.320312 126.464844 C 197.582031 126.433594 207.746094 126.402344 244.617188 126.304688 C 250.003906 163.886719 251.03125 171.066406 252.730469 182.769531 C 252.730469 194.34375 252.730469 202.875 252.761719 244.398438 C 227.113281 248.085938 214.605469 249.878906 205.917969 251.128906 C 197.421875 251.128906 192.289062 251.164062 187.128906 251.164062 Z M 200.820312 251.867188 C 196.296875 252.507812 192.417969 253.085938 187.160156 253.824219 L 161.445312 257.511719 L 131.082031 257.542969 C 130.792969 255.523438 130.503906 253.566406 130.246094 251.675781 C 142.269531 251.804688 164.683594 251.835938 187.128906 251.835938 C 191.714844 251.867188 196.332031 251.867188 200.820312 251.867188 Z M 121.847656 126.53125 C 131.242188 126.53125 139.097656 126.5 145.796875 126.5 C 136.148438 127.878906 127.777344 129.097656 121.847656 129.960938 C 121.847656 128.839844 121.847656 127.683594 121.847656 126.53125 Z M 121.910156 196.429688 C 124.894531 217.59375 127.875 238.785156 129.636719 251.195312 C 127.203125 251.195312 124.636719 251.195312 121.941406 251.195312 C 121.941406 218.136719 121.910156 205.855469 121.910156 196.429688 Z M 156.570312 126.019531 C 171.929688 123.804688 176.964844 123.101562 187.160156 121.625 L 196.523438 120.277344 L 243.753906 120.277344 C 244.042969 122.363281 244.332031 124.351562 244.617188 126.273438 C 232.660156 126.242188 209.988281 126.179688 187.351562 126.113281 C 176.707031 126.082031 166.09375 126.050781 156.570312 126.019531 Z M 252.730469 176.582031 C 250.003906 157.441406 247.25 138.492188 245.484375 126.304688 C 247.792969 126.304688 250.164062 126.304688 252.699219 126.273438 C 252.699219 154.328125 252.699219 167.476562 252.730469 176.582031 Z M 252.699219 120.246094 C 252.699219 122.332031 252.699219 124.316406 252.699219 126.273438 C 251.640625 126.273438 249.109375 126.273438 245.484375 126.242188 C 245.164062 123.996094 244.875 121.976562 244.617188 120.246094 Z M 242.792969 113.640625 C 243.078125 115.628906 243.335938 117.554688 243.625 119.414062 C 234.421875 119.316406 219.769531 119.285156 203.769531 119.253906 Z M 121.492188 120.34375 L 187.128906 120.308594 L 189.148438 120.308594 C 188.476562 120.40625 187.835938 120.503906 187.160156 120.597656 C 174.304688 122.425781 160.964844 124.351562 149.230469 126.050781 C 133.359375 126.019531 122.007812 126.019531 121.621094 126.050781 C 121.589844 126.050781 121.558594 126.464844 121.527344 127.269531 C 121.492188 125.023438 121.492188 122.714844 121.492188 120.34375 Z M 112.933594 132.300781 C 115.914062 131.886719 118.738281 131.46875 121.429688 131.082031 C 121.269531 141.152344 121.207031 164.78125 121.207031 188.992188 C 119.792969 179.339844 117.742188 165.296875 112.933594 132.300781 Z M 121.941406 257.574219 C 121.941406 255.492188 121.941406 253.503906 121.941406 251.546875 C 123.160156 251.613281 125.886719 251.644531 129.703125 251.707031 C 130.023438 253.984375 130.3125 255.972656 130.535156 257.574219 Z M 131.722656 261.808594 C 131.5625 260.589844 131.371094 259.402344 131.210938 258.25 C 137.367188 258.3125 145.925781 258.34375 155.707031 258.34375 Z M 187.320312 257.511719 L 166.0625 257.511719 C 172.667969 256.582031 179.816406 255.554688 187.128906 254.527344 C 193.347656 253.632812 199.699219 252.734375 205.917969 251.835938 C 229.421875 251.835938 249.492188 251.773438 252.761719 251.773438 C 252.761719 253.597656 252.761719 255.492188 252.761719 257.445312 Z M 253.691406 244.269531 C 253.789062 231.1875 253.820312 210.699219 253.820312 190.433594 C 255.199219 200.054688 257.285156 214.449219 261.386719 243.148438 C 258.695312 243.53125 256.128906 243.917969 253.691406 244.269531 Z M 253.691406 244.269531 " fill-opacity="1" fill-rule="evenodd"/></g><g fill="#000000" fill-opacity="1"><g transform="translate(176.118744, 197.624987)"><g><path d="M 12.769531 3.347656 C 12.769531 3.597656 12.769531 4.710938 12.769531 4.835938 C 15.125 4.835938 16.988281 4.773438 19.40625 4.277344 C 19.652344 2.851562 18.722656 1.363281 18.910156 -0.1875 L 18.660156 -0.1875 C 18.597656 -0.621094 18.785156 -1.363281 19.09375 -1.675781 L 19.09375 -15.066406 L 18.910156 -15.3125 C 18.910156 -15.4375 19.15625 -22.628906 19.40625 -25.664062 C 19.527344 -25.914062 19.652344 -27.773438 19.652344 -28.332031 C 19.839844 -29.324219 20.769531 -35.398438 22.628906 -35.398438 C 22.9375 -35.398438 23.1875 -35.273438 23.496094 -35.027344 C 23.804688 -35.832031 23.371094 -36.082031 22.875 -36.082031 C 22.378906 -36.082031 21.820312 -35.894531 21.574219 -35.648438 C 21.328125 -35.460938 20.394531 -34.46875 20.210938 -34.222656 C 19.40625 -33.167969 19.09375 -31.742188 18.660156 -30.5625 C 18.472656 -32.980469 20.457031 -36.761719 22.316406 -36.761719 C 23.1875 -36.761719 23.992188 -35.957031 24.550781 -33.847656 C 25.046875 -36.207031 24.054688 -37.136719 22.691406 -37.136719 C 21.574219 -37.136719 20.273438 -36.515625 19.40625 -35.648438 C 17.917969 -33.972656 16.988281 -31.371094 16.613281 -29.074219 C 16.492188 -28.207031 16.550781 -26.96875 15.808594 -26.285156 C 15.808594 -26.410156 16.058594 -26.65625 16.242188 -26.65625 C 16.304688 -26.65625 16.304688 -26.597656 16.367188 -26.597656 C 16.550781 -26.472656 16.925781 -25.851562 16.863281 -25.664062 L 16.117188 -24.300781 L 16.117188 -20.394531 L 15.808594 -20.085938 C 15.808594 -20.085938 15.621094 -18.535156 15.5625 -17.855469 C 15.5625 -17.171875 15.5 -15.933594 15.3125 -15.3125 C 15.1875 -15.25 14.753906 -15.066406 14.570312 -15.066406 C 14.320312 -13.328125 15.25 -12.957031 15.066406 -11.46875 C 15.066406 -10.789062 14.753906 -9.113281 14.753906 -9.113281 L 14.570312 -9.113281 L 14.570312 -8.617188 L 14.753906 -8.617188 C 14.816406 -8.371094 14.691406 -8.183594 14.570312 -8.121094 C 14.816406 -7.933594 14.816406 -7.378906 14.570312 -7.191406 C 14.816406 -7.128906 14.816406 -6.695312 14.753906 -6.449219 C 14.074219 -6.695312 13.949219 -8.121094 13.949219 -8.617188 C 13.949219 -8.492188 13.824219 -7.128906 13.328125 -7.128906 C 13.328125 -7.128906 13.265625 -7.191406 13.203125 -7.191406 C 12.398438 -9.238281 13.019531 -10.539062 11.777344 -12.273438 L 11.777344 -11.46875 C 10.847656 -11.59375 10.105469 -15.25 9.917969 -16.179688 C 9.734375 -16.988281 8.742188 -17.792969 8.617188 -18.472656 C 8.617188 -18.472656 8.804688 -18.96875 8.804688 -19.03125 C 8.988281 -20.085938 8.679688 -20.890625 8.308594 -21.882812 C 8.183594 -22.441406 6.449219 -27.152344 6.324219 -27.648438 C 6.136719 -28.332031 6.261719 -30.8125 6.011719 -30.8125 C 5.578125 -30.8125 3.78125 -30.996094 3.347656 -31.121094 C 3.160156 -31.121094 2.605469 -31.371094 2.046875 -31.371094 C 1.734375 -31.371094 1.488281 -31.308594 1.300781 -31.121094 C 1.734375 -20.769531 0.125 -10.476562 0.621094 -0.1875 C 1.179688 0.929688 -0.0625 3.039062 0.0625 4.277344 L 6.507812 4.277344 C 6.632812 3.84375 5.765625 1.363281 5.515625 1.238281 L 5.765625 -0.496094 L 5.207031 -0.1875 C 4.585938 -1.550781 5.332031 -3.285156 5.207031 -4.773438 L 4.835938 -3.101562 L 4.835938 -4.402344 L 4.464844 -3.78125 C 4.464844 -4.089844 4.464844 -5.207031 4.464844 -5.457031 C 4.464844 -5.578125 4.585938 -5.703125 4.648438 -5.703125 L 4.464844 -6.136719 L 4.464844 -8.617188 L 5.144531 -9.113281 L 5.144531 -19.03125 L 5.515625 -18.472656 L 10.351562 -3.597656 L 10.351562 -3.101562 L 10.847656 -3.285156 L 10.847656 -1.675781 L 11.46875 -1.921875 C 11.53125 -1.734375 11.777344 -1.363281 11.777344 -1.054688 L 11.46875 -1.054688 C 11.222656 -0.433594 12.152344 -0.0625 11.964844 0.683594 L 12.214844 0.683594 C 12.089844 1.675781 12.585938 2.480469 12.769531 3.347656 Z M 3.101562 3.71875 C 3.101562 3.410156 2.851562 1.488281 2.605469 1.238281 L 2.605469 -4.960938 C 3.285156 -2.167969 4.773438 1.054688 3.597656 3.96875 C 3.410156 4.089844 3.160156 3.84375 3.101562 3.71875 Z M 15.808594 2.605469 C 15.808594 2.605469 15.621094 2.605469 15.5625 2.605469 C 15.1875 1.363281 15.066406 1.488281 14.257812 0.433594 C 14.257812 0.433594 14.074219 -0.0625 13.949219 -0.1875 C 13.640625 -0.992188 12.214844 -4.527344 11.964844 -5.207031 C 12.027344 -5.269531 12.089844 -5.269531 12.152344 -5.269531 C 12.523438 -5.269531 12.769531 -4.277344 13.203125 -4.277344 C 13.265625 -4.277344 13.328125 -4.339844 13.453125 -4.402344 C 13.203125 -3.71875 15.4375 -0.496094 15.808594 0.0625 C 16.117188 0.742188 16.117188 2.480469 16.117188 3.101562 C 16.117188 3.039062 15.871094 2.605469 15.808594 2.605469 Z M 3.597656 1.488281 C 3.347656 1.488281 3.347656 2.046875 3.597656 2.046875 C 3.90625 2.046875 3.90625 1.488281 3.597656 1.488281 Z M 15.808594 -1.363281 C 16.058594 -1.238281 16.058594 -0.496094 15.808594 -0.496094 C 15.621094 -0.433594 15.621094 -1.425781 15.808594 -1.363281 Z M 0.867188 -1.363281 C 1.054688 -1.363281 1.054688 -0.683594 0.867188 -0.683594 C 0.621094 -0.683594 0.621094 -1.363281 0.867188 -1.363281 Z M 0.867188 -1.921875 C 1.054688 -1.921875 1.054688 -1.363281 0.867188 -1.363281 C 0.621094 -1.363281 0.621094 -1.921875 0.867188 -1.921875 Z M 16.117188 -2.167969 C 16.367188 -2.167969 16.367188 -1.675781 16.117188 -1.675781 C 15.808594 -1.675781 15.808594 -2.167969 16.117188 -2.167969 Z M 18.910156 -2.167969 C 19.09375 -2.167969 19.09375 -1.675781 18.910156 -1.675781 C 18.660156 -1.675781 18.660156 -2.167969 18.910156 -2.167969 Z M 0.867188 -2.417969 C 1.054688 -2.417969 1.054688 -1.921875 0.867188 -1.921875 C 0.621094 -1.921875 0.621094 -2.417969 0.867188 -2.417969 Z M 4.960938 -2.851562 C 5.207031 -2.851562 5.207031 -2.167969 4.960938 -2.167969 C 4.648438 -2.167969 4.648438 -2.851562 4.960938 -2.851562 Z M 16.117188 -3.597656 C 16.304688 -3.472656 16.304688 -2.542969 16.117188 -2.417969 C 15.871094 -2.292969 15.871094 -3.71875 16.117188 -3.597656 Z M 18.660156 -2.851562 C 18.785156 -2.664062 18.785156 -2.417969 18.660156 -2.417969 C 18.597656 -2.355469 18.597656 -2.851562 18.660156 -2.851562 Z M 0.867188 -3.597656 C 0.929688 -3.597656 0.929688 -3.410156 0.867188 -3.285156 C 0.742188 -3.285156 0.742188 -3.65625 0.867188 -3.597656 Z M 18.660156 -4.089844 L 18.910156 -4.089844 L 18.910156 -3.285156 L 18.660156 -3.285156 Z M 3.597656 -3.78125 C 3.90625 -3.78125 3.90625 -3.285156 3.597656 -3.285156 C 3.347656 -3.285156 3.347656 -3.78125 3.597656 -3.78125 Z M 3.347656 -5.207031 C 3.535156 -5.207031 3.535156 -4.773438 3.347656 -4.773438 C 3.285156 -4.648438 3.285156 -5.269531 3.347656 -5.207031 Z M 4.648438 -5.207031 C 4.464844 -5.207031 4.464844 -4.773438 4.648438 -4.773438 C 4.960938 -4.773438 4.960938 -5.207031 4.648438 -5.207031 Z M 10.351562 -5.207031 C 10.601562 -5.207031 10.601562 -5.023438 10.351562 -4.960938 C 10.167969 -4.960938 10.167969 -5.269531 10.351562 -5.207031 Z M 12.957031 -5.457031 C 13.082031 -5.457031 13.082031 -5.269531 12.957031 -5.207031 C 12.832031 -5.207031 12.832031 -5.578125 12.957031 -5.457031 Z M 18.660156 -5.457031 L 18.910156 -5.703125 L 18.910156 -5.207031 Z M 1.054688 -5.457031 C 1.054688 -5.269531 0.867188 -5.269531 0.867188 -5.457031 C 0.867188 -5.640625 1.054688 -5.640625 1.054688 -5.457031 Z M 11.777344 -5.703125 C 11.964844 -5.703125 11.964844 -5.207031 11.777344 -5.207031 C 11.46875 -5.207031 11.46875 -5.703125 11.777344 -5.703125 Z M 2.605469 -6.136719 C 2.605469 -6.199219 2.605469 -6.449219 2.605469 -6.449219 L 2.480469 -6.449219 C 2.355469 -6.507812 2.355469 -6.695312 2.480469 -6.695312 C 2.480469 -6.757812 2.914062 -6.882812 2.914062 -6.882812 L 2.914062 -9.796875 L 2.480469 -9.113281 C 2.167969 -9.980469 2.109375 -10.910156 2.167969 -11.65625 L 2.480469 -11.46875 C 2.355469 -11.59375 2.355469 -12.152344 2.480469 -12.273438 C 2.605469 -13.082031 1.675781 -17.109375 2.914062 -17.109375 L 2.605469 -17.359375 C 2.789062 -17.296875 2.914062 -17.296875 3.101562 -17.296875 C 3.410156 -17.296875 3.65625 -17.359375 3.90625 -17.667969 C 3.90625 -17.421875 3.71875 -16.675781 3.597656 -16.492188 C 3.597656 -16.492188 3.597656 -16.179688 3.597656 -16.179688 C 2.542969 -13.578125 3.90625 -10.042969 3.90625 -7.191406 C 3.90625 -6.882812 3.410156 -5.828125 2.976562 -5.828125 C 2.851562 -5.828125 2.726562 -5.953125 2.605469 -6.136719 Z M 3.597656 -6.136719 C 3.90625 -6.136719 3.90625 -5.457031 3.597656 -5.457031 C 3.347656 -5.457031 3.347656 -6.136719 3.597656 -6.136719 Z M 12.769531 -6.136719 C 12.832031 -6.136719 12.832031 -5.890625 12.769531 -5.703125 C 12.585938 -5.703125 12.585938 -6.199219 12.769531 -6.136719 Z M 11.777344 -6.449219 C 11.71875 -6.507812 11.71875 -6.820312 11.777344 -6.882812 L 11.222656 -6.695312 C 11.777344 -7.5625 10.601562 -7.875 10.847656 -8.371094 L 10.351562 -8.121094 C 10.726562 -8.554688 10.847656 -9.050781 10.105469 -9.113281 C 10.414062 -9.113281 10.847656 -9.671875 10.664062 -9.980469 C 10.539062 -9.734375 10.414062 -9.671875 10.292969 -9.671875 C 9.796875 -9.671875 9.238281 -11.34375 9.300781 -11.65625 L 8.804688 -11.46875 L 8.804688 -13.390625 L 8.617188 -13.390625 C 8.742188 -14.257812 8.183594 -15.3125 7.5625 -15.933594 L 7.75 -16.179688 L 7.5625 -16.492188 L 8.617188 -17.109375 C 8.867188 -17.234375 8.804688 -15.25 9.050781 -14.753906 C 9.113281 -14.753906 9.609375 -14.011719 9.609375 -14.011719 C 9.609375 -13.886719 9.609375 -13.265625 9.609375 -13.082031 C 9.609375 -13.082031 9.980469 -12.894531 10.105469 -12.894531 C 10.167969 -12.832031 11.28125 -10.230469 11.46875 -9.796875 C 11.53125 -9.609375 11.902344 -8.371094 11.964844 -8.121094 L 12.523438 -8.371094 C 12.585938 -7.933594 12.769531 -6.261719 11.964844 -6.136719 C 11.902344 -6.136719 11.777344 -6.261719 11.777344 -6.449219 Z M 13.453125 -6.695312 L 13.640625 -6.695312 L 13.640625 -6.136719 Z M 14.257812 -6.449219 C 14.570312 -6.449219 14.570312 -5.703125 14.257812 -5.703125 C 13.949219 -5.703125 13.949219 -6.449219 14.257812 -6.449219 Z M 18.660156 -6.449219 C 18.910156 -6.449219 18.910156 -5.703125 18.660156 -5.703125 C 18.414062 -5.703125 18.414062 -6.449219 18.660156 -6.449219 Z M 4.648438 -7.5 C 4.527344 -7.5625 4.527344 -6.632812 4.648438 -6.695312 C 4.835938 -6.757812 4.835938 -7.378906 4.648438 -7.5 Z M 2.167969 -7.191406 C 2.480469 -7.191406 2.480469 -6.695312 2.167969 -6.695312 C 1.921875 -6.695312 1.921875 -7.191406 2.167969 -7.191406 Z M 10.847656 -7.191406 C 11.222656 -7.191406 11.222656 -6.695312 10.847656 -6.695312 C 10.664062 -6.695312 10.664062 -7.191406 10.847656 -7.191406 Z M 9.609375 -7.5 C 9.917969 -7.5 9.917969 -6.882812 9.609375 -6.882812 C 9.300781 -6.882812 9.300781 -7.5 9.609375 -7.5 Z M 15.808594 -7.5 C 16.058594 -7.378906 16.058594 -7.191406 15.808594 -7.191406 C 15.621094 -7.128906 15.621094 -7.5 15.808594 -7.5 Z M 2.480469 -8.371094 C 2.542969 -8.183594 2.542969 -7.5625 2.480469 -7.5 C 2.292969 -7.378906 2.292969 -8.492188 2.480469 -8.371094 Z M 3.347656 -7.875 C 3.101562 -7.875 3.101562 -7.191406 3.347656 -7.191406 C 3.597656 -7.191406 3.597656 -7.875 3.347656 -7.875 Z M 1.054688 -8.121094 C 1.300781 -8.121094 1.300781 -7.5 1.054688 -7.5 C 0.867188 -7.5 0.867188 -8.121094 1.054688 -8.121094 Z M 4.648438 -8.371094 C 4.464844 -8.371094 4.464844 -7.875 4.648438 -7.875 C 4.960938 -7.875 4.960938 -8.371094 4.648438 -8.371094 Z M 15.808594 -8.371094 C 16.058594 -8.371094 16.058594 -8.121094 15.808594 -8.121094 C 15.621094 -8.058594 15.621094 -8.371094 15.808594 -8.371094 Z M 13.453125 -8.617188 L 13.203125 -8.371094 L 13.453125 -8.371094 Z M 17.171875 -8.617188 C 17.359375 -8.617188 17.359375 -8.121094 17.171875 -8.121094 C 16.863281 -8.121094 16.863281 -8.617188 17.171875 -8.617188 Z M 18.660156 -8.617188 C 18.785156 -8.554688 18.785156 -8.371094 18.660156 -8.371094 C 18.597656 -8.371094 18.597656 -8.617188 18.660156 -8.617188 Z M 10.351562 -8.804688 C 10.664062 -8.804688 10.664062 -8.371094 10.351562 -8.371094 C 10.105469 -8.371094 10.105469 -8.804688 10.351562 -8.804688 Z M 2.605469 -9.113281 C 2.914062 -9.113281 2.914062 -8.617188 2.605469 -8.617188 C 2.480469 -8.617188 2.480469 -9.113281 2.605469 -9.113281 Z M 11.222656 -9.113281 C 10.847656 -9.113281 10.847656 -8.617188 11.222656 -8.617188 C 11.46875 -8.617188 11.46875 -9.113281 11.222656 -9.113281 Z M 13.203125 -9.113281 L 12.957031 -8.804688 L 13.203125 -8.804688 Z M 15.808594 -9.113281 C 16.058594 -9.113281 16.058594 -8.988281 15.808594 -8.804688 C 15.621094 -8.804688 15.621094 -9.238281 15.808594 -9.113281 Z M 16.367188 -9.980469 C 16.429688 -9.796875 16.550781 -9.734375 16.675781 -9.734375 C 16.988281 -9.734375 17.359375 -10.230469 17.667969 -10.292969 C 17.421875 -9.671875 16.738281 -9.300781 16.613281 -8.617188 C 16.117188 -8.742188 16.367188 -9.980469 16.367188 -9.980469 Z M 4.214844 -14.257812 C 4.214844 -14.320312 4.277344 -15.5 4.648438 -15.683594 C 4.773438 -14.011719 4.835938 -11.035156 4.464844 -9.113281 Z M 9.300781 -9.796875 C 9.609375 -9.796875 9.609375 -9.113281 9.300781 -9.113281 C 9.050781 -9.113281 9.050781 -9.796875 9.300781 -9.796875 Z M 1.675781 -9.980469 C 1.921875 -9.980469 1.921875 -9.546875 1.675781 -9.546875 C 1.300781 -9.546875 1.300781 -9.980469 1.675781 -9.980469 Z M 12.957031 -9.980469 C 12.769531 -9.980469 12.769531 -9.546875 12.957031 -9.546875 C 13.203125 -9.546875 13.203125 -9.980469 12.957031 -9.980469 Z M 14.257812 -11.964844 L 14.257812 -9.796875 C 14.628906 -10.476562 14.628906 -11.40625 14.257812 -11.964844 Z M 15.808594 -10.292969 C 16.058594 -10.230469 16.058594 -9.855469 15.808594 -9.796875 C 15.621094 -9.671875 15.621094 -10.414062 15.808594 -10.292969 Z M 8.617188 -10.292969 C 8.804688 -10.292969 8.804688 -9.796875 8.617188 -9.796875 C 8.308594 -9.796875 8.308594 -10.292969 8.617188 -10.292969 Z M 12.214844 -10.292969 C 12.335938 -10.292969 12.335938 -10.042969 12.214844 -9.980469 C 12.089844 -9.980469 12.089844 -10.414062 12.214844 -10.292969 Z M 2.605469 -11.222656 C 2.542969 -11.40625 2.542969 -10.230469 2.605469 -10.292969 C 2.789062 -10.476562 2.789062 -11.035156 2.605469 -11.222656 Z M 10.105469 -10.539062 C 9.917969 -10.539062 9.917969 -9.980469 10.105469 -9.980469 C 10.351562 -9.980469 10.351562 -10.539062 10.105469 -10.539062 Z M 1.054688 -10.910156 C 1.300781 -10.910156 1.300781 -10.292969 1.054688 -10.292969 C 0.867188 -10.292969 0.867188 -10.910156 1.054688 -10.910156 Z M 11.964844 -10.910156 C 12.089844 -10.910156 12.089844 -10.664062 11.964844 -10.539062 C 11.777344 -10.539062 11.777344 -10.972656 11.964844 -10.910156 Z M 16.367188 -10.910156 C 16.613281 -10.910156 16.613281 -10.292969 16.367188 -10.292969 C 16.117188 -10.292969 16.117188 -10.910156 16.367188 -10.910156 Z M 10.105469 -10.910156 C 10.167969 -11.035156 9.917969 -11.035156 9.917969 -10.910156 C 9.980469 -10.664062 10.105469 -10.664062 10.105469 -10.910156 Z M 15.5625 -10.910156 C 15.5625 -10.789062 15.5625 -10.726562 15.5 -10.726562 C 15.4375 -10.726562 15.375 -10.789062 15.3125 -10.910156 C 15.3125 -11.035156 15.621094 -11.035156 15.5625 -10.910156 Z M 9.609375 -11.46875 C 9.300781 -11.46875 9.300781 -10.910156 9.609375 -10.910156 C 9.917969 -10.910156 9.917969 -11.46875 9.609375 -11.46875 Z M 16.863281 -11.46875 L 16.613281 -11.65625 C 17.171875 -11.65625 16.367188 -12.648438 16.863281 -13.082031 C 16.863281 -13.082031 17.605469 -11.097656 16.988281 -11.097656 C 16.863281 -11.097656 16.800781 -11.160156 16.613281 -11.222656 Z M 18.660156 -11.65625 C 18.910156 -11.65625 18.910156 -11.222656 18.660156 -11.222656 C 18.414062 -11.222656 18.414062 -11.65625 18.660156 -11.65625 Z M 11.777344 -13.082031 C 11.53125 -13.082031 11.53125 -12.832031 11.777344 -12.894531 C 11.902344 -12.894531 11.902344 -13.082031 11.777344 -13.082031 Z M 16.367188 -13.082031 C 16.613281 -13.082031 16.613281 -12.585938 16.367188 -12.585938 C 16.117188 -12.585938 16.117188 -13.082031 16.367188 -13.082031 Z M 7.75 -13.390625 C 8.058594 -13.390625 8.058594 -12.894531 7.75 -12.894531 C 7.5625 -12.894531 7.5625 -13.390625 7.75 -13.390625 Z M 16.117188 -13.390625 C 16.117188 -13.390625 16.304688 -13.578125 16.367188 -13.699219 L 16.613281 -13.390625 L 16.117188 -13.082031 C 16.117188 -13.082031 16.117188 -13.328125 16.117188 -13.390625 Z M 1.300781 -13.699219 C 1.675781 -13.699219 1.675781 -13.082031 1.300781 -13.082031 C 1.054688 -13.082031 1.054688 -13.699219 1.300781 -13.699219 Z M 11.46875 -13.699219 C 11.28125 -13.699219 11.28125 -13.328125 11.46875 -13.390625 C 11.71875 -13.390625 11.71875 -13.578125 11.46875 -13.699219 Z M 15.066406 -14.753906 C 15.25 -14.628906 15.25 -13.578125 15.066406 -13.390625 C 14.816406 -13.265625 14.816406 -15.066406 15.066406 -14.753906 Z M 17.359375 -13.699219 C 17.421875 -13.578125 17.421875 -13.390625 17.359375 -13.390625 C 17.234375 -13.328125 17.234375 -13.699219 17.359375 -13.699219 Z M 1.300781 -14.257812 C 1.675781 -14.257812 1.675781 -13.699219 1.300781 -13.699219 C 1.054688 -13.699219 1.054688 -14.257812 1.300781 -14.257812 Z M 11.222656 -14.570312 C 10.847656 -14.570312 10.847656 -14.011719 11.222656 -14.011719 C 11.46875 -14.011719 11.46875 -14.570312 11.222656 -14.570312 Z M 16.863281 -14.570312 C 17.421875 -14.691406 17.171875 -15.933594 16.863281 -16.179688 C 16.550781 -15.996094 16.367188 -15.3125 16.367188 -15.066406 C 16.367188 -15.5 16.367188 -17.421875 16.367188 -17.855469 C 16.367188 -18.101562 16.550781 -19.589844 16.613281 -19.960938 C 16.613281 -20.273438 16.738281 -23.433594 16.863281 -23.867188 C 16.863281 -24.054688 16.988281 -25.292969 17.171875 -25.542969 C 17.171875 -25.664062 17.296875 -27.527344 17.359375 -27.648438 C 17.421875 -28.207031 17.855469 -29.074219 17.917969 -29.074219 L 18.660156 -29.074219 C 17.917969 -28.144531 17.421875 -26.90625 17.667969 -25.542969 L 18.414062 -26.285156 C 18.597656 -26.101562 18.414062 -25.726562 18.101562 -25.664062 L 18.414062 -25.542969 C 18.101562 -25.046875 17.667969 -25.046875 17.359375 -24.675781 L 17.917969 -24.300781 C 17.359375 -24.238281 17.667969 -22.9375 17.667969 -22.9375 L 18.101562 -23.308594 C 18.351562 -22.753906 17.667969 -22.132812 17.359375 -21.882812 L 17.667969 -22.441406 L 17.171875 -22.441406 L 17.234375 -18.785156 L 17.234375 -19.960938 C 17.234375 -19.960938 17.421875 -19.960938 17.667969 -19.960938 C 17.917969 -19.714844 17.296875 -15.066406 17.359375 -14.257812 C 17.296875 -14.195312 17.234375 -14.195312 17.171875 -14.195312 C 17.046875 -14.195312 16.925781 -14.320312 16.863281 -14.570312 Z M 18.101562 -14.570312 C 18.414062 -14.570312 18.414062 -14.011719 18.101562 -14.011719 C 17.917969 -14.011719 17.917969 -14.570312 18.101562 -14.570312 Z M 7.316406 -14.753906 C 7.5625 -14.753906 7.5625 -14.257812 7.316406 -14.257812 C 7.003906 -14.257812 7.003906 -14.753906 7.316406 -14.753906 Z M 16.367188 -14.570312 C 16.367188 -14.445312 16.304688 -14.382812 16.242188 -14.382812 C 16.179688 -14.382812 16.117188 -14.445312 16.117188 -14.570312 C 16.117188 -14.691406 16.367188 -14.691406 16.367188 -14.570312 Z M 7.75 -15.066406 C 8.058594 -15.066406 8.058594 -14.570312 7.75 -14.570312 C 7.5625 -14.570312 7.5625 -15.066406 7.75 -15.066406 Z M 10.847656 -15.066406 L 10.664062 -14.753906 L 10.847656 -14.753906 Z M 16.863281 -15.3125 C 17.171875 -15.3125 17.171875 -14.753906 16.863281 -14.753906 C 16.613281 -14.753906 16.613281 -15.3125 16.863281 -15.3125 Z M 1.675781 -15.683594 C 1.921875 -15.683594 1.921875 -15.066406 1.675781 -15.066406 C 1.300781 -15.066406 1.300781 -15.683594 1.675781 -15.683594 Z M 10.664062 -15.933594 C 10.351562 -15.933594 10.351562 -15.3125 10.664062 -15.3125 C 10.847656 -15.3125 10.847656 -15.933594 10.664062 -15.933594 Z M 4.464844 -17.359375 C 4.464844 -17.792969 3.71875 -18.535156 4.648438 -18.785156 L 4.648438 -16.179688 L 4.464844 -15.933594 C 4.464844 -16.179688 4.464844 -17.171875 4.464844 -17.359375 Z M 8.058594 -16.179688 C 7.75 -16.179688 7.75 -15.683594 8.058594 -15.683594 C 8.308594 -15.683594 8.308594 -16.179688 8.058594 -16.179688 Z M 14.753906 -17.667969 C 14.753906 -17.359375 14.753906 -16.179688 14.753906 -15.933594 C 15.1875 -17.234375 15.1875 -18.535156 15.066406 -19.960938 C 15.066406 -19.527344 14.753906 -17.855469 14.753906 -17.667969 Z M 2.605469 -16.492188 C 2.542969 -16.613281 2.542969 -16.179688 2.605469 -16.179688 C 2.789062 -16.304688 2.789062 -16.492188 2.605469 -16.492188 Z M 10.351562 -16.492188 C 10.105469 -16.492188 10.105469 -15.933594 10.351562 -15.933594 C 10.664062 -15.933594 10.664062 -16.492188 10.351562 -16.492188 Z M 10.105469 -17.109375 C 9.980469 -17.171875 9.980469 -16.738281 10.105469 -16.738281 C 10.292969 -16.925781 10.292969 -17.109375 10.105469 -17.109375 Z M 8.308594 -17.667969 C 8.492188 -17.421875 8.246094 -17.109375 7.933594 -17.109375 C 7.875 -17.109375 7.8125 -17.109375 7.75 -17.109375 Z M 16.863281 -17.855469 C 16.738281 -17.792969 16.738281 -17.234375 16.863281 -17.109375 C 17.234375 -17.171875 17.171875 -17.980469 17.171875 -18.164062 C 16.988281 -18.164062 16.863281 -17.855469 16.863281 -17.855469 Z M 7.5625 -18.164062 C 7.5625 -18.164062 7.75 -18.164062 7.75 -18.164062 C 7.996094 -17.792969 7.5 -17.667969 7.191406 -17.667969 C 7.128906 -17.667969 7.066406 -17.667969 7.003906 -17.667969 C 7.003906 -17.730469 7.378906 -18.101562 7.5625 -18.164062 Z M 9.917969 -17.855469 C 9.609375 -17.855469 9.609375 -17.359375 9.917969 -17.359375 C 10.105469 -17.359375 10.105469 -17.855469 9.917969 -17.855469 Z M 2.480469 -18.164062 C 2.605469 -18.351562 2.789062 -18.414062 2.914062 -18.414062 C 3.101562 -18.414062 3.222656 -18.351562 3.347656 -18.164062 C 3.101562 -17.855469 2.851562 -17.855469 2.480469 -17.855469 C 2.355469 -17.855469 2.355469 -18.164062 2.480469 -18.164062 Z M 7.003906 -18.472656 C 7.316406 -18.472656 7.316406 -17.855469 7.003906 -17.855469 C 6.820312 -17.855469 6.820312 -18.472656 7.003906 -18.472656 Z M 9.609375 -18.472656 C 9.300781 -18.472656 9.300781 -17.855469 9.609375 -17.855469 C 9.917969 -17.855469 9.917969 -18.472656 9.609375 -18.472656 Z M 2.605469 -18.785156 C 2.605469 -18.535156 2.480469 -18.535156 2.480469 -18.785156 C 2.417969 -18.910156 2.480469 -18.910156 2.542969 -18.910156 C 2.605469 -18.910156 2.664062 -18.910156 2.605469 -18.785156 Z M 7.5625 -19.03125 C 7.75 -19.03125 7.75 -18.472656 7.5625 -18.472656 C 7.316406 -18.472656 7.316406 -19.03125 7.5625 -19.03125 Z M 3.347656 -19.34375 C 3.597656 -19.34375 3.597656 -18.785156 3.347656 -18.785156 C 3.101562 -18.785156 3.101562 -19.34375 3.347656 -19.34375 Z M 9.300781 -19.34375 C 9.050781 -19.34375 9.050781 -18.785156 9.300781 -18.785156 C 9.609375 -18.785156 9.609375 -19.34375 9.300781 -19.34375 Z M 18.660156 -19.34375 C 18.910156 -19.34375 18.910156 -18.785156 18.660156 -18.785156 C 18.414062 -18.785156 18.414062 -19.34375 18.660156 -19.34375 Z M 2.605469 -19.589844 C 2.914062 -19.589844 2.914062 -19.03125 2.605469 -19.03125 C 2.480469 -19.03125 2.480469 -19.589844 2.605469 -19.589844 Z M 4.648438 -19.589844 C 4.835938 -19.527344 4.835938 -19.34375 4.648438 -19.34375 C 4.527344 -19.21875 4.527344 -19.589844 4.648438 -19.589844 Z M 6.820312 -19.589844 C 7.003906 -19.589844 7.003906 -19.03125 6.820312 -19.03125 C 6.507812 -19.03125 6.507812 -19.589844 6.820312 -19.589844 Z M 9.050781 -19.960938 C 8.804688 -19.960938 8.804688 -19.34375 9.050781 -19.34375 C 9.300781 -19.34375 9.300781 -19.960938 9.050781 -19.960938 Z M 18.660156 -19.960938 C 18.785156 -19.777344 18.785156 -19.589844 18.660156 -19.589844 C 18.597656 -19.527344 18.597656 -19.960938 18.660156 -19.960938 Z M 2.914062 -20.085938 C 2.914062 -20.023438 2.851562 -19.902344 2.726562 -19.902344 C 2.726562 -19.902344 2.664062 -19.902344 2.605469 -19.960938 C 2.542969 -19.960938 2.914062 -20.273438 2.914062 -20.085938 Z M 2.914062 -20.707031 C 2.914062 -20.769531 2.914062 -20.890625 2.914062 -20.890625 L 3.347656 -20.890625 L 3.347656 -20.085938 C 3.285156 -20.210938 2.914062 -20.582031 2.914062 -20.707031 Z M 6.324219 -20.394531 L 7.003906 -20.707031 C 7.191406 -20.394531 6.945312 -20.210938 6.695312 -20.210938 C 6.507812 -20.210938 6.386719 -20.273438 6.324219 -20.394531 Z M 7.316406 -20.394531 C 7.5625 -20.394531 7.5625 -19.960938 7.316406 -19.960938 C 7.003906 -19.960938 7.003906 -20.394531 7.316406 -20.394531 Z M 17.359375 -20.707031 L 17.667969 -20.707031 L 17.359375 -20.394531 Z M 6.324219 -21.265625 C 6.507812 -21.265625 6.507812 -20.707031 6.324219 -20.707031 C 6.011719 -20.707031 6.011719 -21.265625 6.324219 -21.265625 Z M 7.003906 -21.511719 C 7.066406 -21.386719 6.820312 -21.203125 6.820312 -21.265625 C 6.632812 -21.386719 6.882812 -21.699219 7.003906 -21.511719 Z M 15.3125 -21.882812 L 15.3125 -21.265625 L 15.5625 -21.265625 Z M 2.914062 -21.882812 C 3.101562 -21.882812 3.101562 -21.265625 2.914062 -21.265625 C 2.605469 -21.265625 2.605469 -21.882812 2.914062 -21.882812 Z M 3.597656 -21.511719 C 3.597656 -21.386719 3.410156 -21.386719 3.347656 -21.511719 C 3.347656 -21.636719 3.472656 -21.636719 3.535156 -21.636719 C 3.597656 -21.636719 3.65625 -21.636719 3.597656 -21.511719 Z M 18.101562 -21.882812 C 18.414062 -21.882812 18.414062 -21.265625 18.101562 -21.265625 C 17.917969 -21.265625 17.917969 -21.882812 18.101562 -21.882812 Z M 18.660156 -21.882812 C 18.910156 -21.882812 18.910156 -21.265625 18.660156 -21.265625 C 18.414062 -21.265625 18.414062 -21.882812 18.660156 -21.882812 Z M 5.765625 -22.9375 C 6.011719 -22.9375 6.011719 -22.441406 5.765625 -22.441406 C 5.515625 -22.441406 5.515625 -22.9375 5.765625 -22.9375 Z M 15.5625 -23.558594 C 15.4375 -23.683594 15.4375 -22.875 15.5625 -22.9375 C 15.683594 -23.125 15.683594 -23.433594 15.5625 -23.558594 Z M 2.914062 -23.558594 C 3.101562 -23.558594 3.101562 -22.9375 2.914062 -22.9375 C 2.605469 -22.9375 2.605469 -23.558594 2.914062 -23.558594 Z M 5.515625 -23.558594 C 5.765625 -23.558594 5.765625 -22.9375 5.515625 -22.9375 C 5.207031 -22.9375 5.207031 -23.558594 5.515625 -23.558594 Z M 18.101562 -24.054688 C 18.414062 -24.054688 18.414062 -23.558594 18.101562 -23.558594 C 17.917969 -23.558594 17.917969 -24.054688 18.101562 -24.054688 Z M 4.960938 -24.675781 C 5.207031 -24.675781 5.207031 -24.054688 4.960938 -24.054688 C 4.648438 -24.054688 4.648438 -24.675781 4.960938 -24.675781 Z M 4.464844 -24.984375 L 4.648438 -25.230469 L 4.648438 -24.675781 Z M 15.808594 -25.230469 C 15.621094 -25.230469 15.621094 -24.859375 15.808594 -24.984375 C 16.058594 -24.984375 16.058594 -25.171875 15.808594 -25.230469 Z M 2.605469 -25.664062 C 2.605469 -25.726562 2.605469 -26.222656 2.605469 -26.285156 L 2.914062 -26.285156 L 2.914062 -25.230469 C 2.914062 -25.230469 2.726562 -25.664062 2.605469 -25.664062 Z M 4.464844 -25.664062 C 4.648438 -25.664062 4.648438 -25.230469 4.464844 -25.230469 C 4.214844 -25.230469 4.214844 -25.664062 4.464844 -25.664062 Z M 4.214844 -26.285156 L 4.464844 -25.914062 L 4.214844 -25.914062 Z M 3.90625 -27.152344 C 4.089844 -27.09375 4.089844 -26.71875 3.90625 -26.597656 C 3.71875 -26.472656 3.71875 -27.152344 3.90625 -27.152344 Z M 2.914062 -28.640625 L 3.101562 -28.640625 C 3.101562 -28.640625 3.101562 -28.394531 3.101562 -28.332031 C 3.101562 -28.144531 2.914062 -27.09375 2.914062 -26.90625 Z M 3.597656 -27.648438 C 3.90625 -27.648438 3.90625 -27.152344 3.597656 -27.152344 C 3.347656 -27.152344 3.347656 -27.648438 3.597656 -27.648438 Z M 18.414062 -27.648438 C 18.597656 -27.648438 18.597656 -27.527344 18.414062 -27.402344 C 18.351562 -27.402344 18.351562 -27.773438 18.414062 -27.648438 Z M 3.347656 -28.332031 C 3.597656 -28.332031 3.597656 -27.648438 3.347656 -27.648438 C 3.101562 -27.648438 3.101562 -28.332031 3.347656 -28.332031 Z M 3.347656 -29.449219 C 3.597656 -29.449219 3.597656 -28.828125 3.347656 -28.828125 C 3.101562 -28.828125 3.101562 -29.449219 3.347656 -29.449219 Z M 2.605469 -29.820312 C 2.789062 -29.632812 2.789062 -29.449219 2.605469 -29.449219 C 2.542969 -29.449219 2.542969 -29.820312 2.605469 -29.820312 Z M 18.660156 -30.066406 C 18.785156 -30.003906 18.785156 -29.820312 18.660156 -29.820312 C 18.597656 -29.632812 18.597656 -30.066406 18.660156 -30.066406 Z M 18.101562 -30.316406 C 18.414062 -30.316406 18.414062 -29.820312 18.101562 -29.820312 C 17.917969 -29.820312 17.917969 -30.316406 18.101562 -30.316406 Z M 23.804688 -33.601562 C 23.929688 -33.539062 24.117188 -33.351562 24.117188 -33.351562 C 24.117188 -33.414062 24.117188 -33.601562 24.117188 -33.601562 C 24.117188 -33.789062 23.929688 -34.34375 23.804688 -34.46875 C 23.804688 -34.34375 23.804688 -33.789062 23.804688 -33.601562 Z M 23.804688 -33.601562 "/></g></g></g></svg>